# xmcd CD database file
#
# Track frame offsets:
#	150
#	47319
#	76727
#	107347
#	146737
#	186668
#	224038
#	242191
#	286779
#	320147
#	337561
#
# Disc length: 4778 seconds
#
# Revision: 0
# Processed by: cddbd v1.5.2PL0 Copyright (c) Steve Scherf et al.
# Submitted via: CDex 1.70beta1
#
DISCID=9c12a80b
DTITLE=Gianluca Esposito - A Conversation with a Big Man
DYEAR=2003
DGENRE=Jazz
TTITLE0=I Sing for Love
TTITLE1=Mr. Duck
TTITLE2=Fast Lines
TTITLE3=Misty
TTITLE4=A Conversation with a Big Man
TTITLE5=I Hear a Rhapsody
TTITLE6=Blues Evening
TTITLE7=Piccole Note
TTITLE8=Night Flight
TTITLE9=Days of Wine and Roses
TTITLE10=The Kicker
EXTD=YEAR: 2003
EXTT0=
EXTT1=
EXTT2=
EXTT3=
EXTT4=
EXTT5=
EXTT6=
EXTT7=
EXTT8=
EXTT9=
EXTT10=
PLAYORDER=
